<!DOCTYPE svg PUBLIC "-//W3C//DTD SVG 1.1//EN" "http://www.w3.org/Graphics/SVG/1.1/DTD/svg11.dtd">
<!-- Uploaded to: SVG Repo, www.svgrepo.com, Transformed by: SVG Repo Mixer Tools -->
<svg fill="#adadad" width="800px" height="800px" viewBox="0 0 24 24" id="left-direction-2" data-name="Flat Color" xmlns="http://www.w3.org/2000/svg" class="icon flat-color" stroke="#adadad" transform="matrix(-1, 0, 0, 1, 0, 0)">
<g id="SVGRepo_bgCarrier" stroke-width="0"/>
<g id="SVGRepo_tracerCarrier" stroke-linecap="round" stroke-linejoin="round"/>
<g id="SVGRepo_iconCarrier">
<path id="primary" d="M13,12l5.46-5.46a1,1,0,0,0,0-1.42L15.58,2.29a1,1,0,0,0-1.41,0L5.88,10.58a2,2,0,0,0,0,2.84l8.3,8.29a1,1,0,0,0,.71.29h0a1,1,0,0,0,.7-.29l2.82-2.83a1,1,0,0,0,0-1.42Z" style="fill: #ffffff;"/>
</g>
</svg>