<?xml version="1.0" encoding="UTF-8"?>
<svg id="Capa_1" data-name="Capa 1" xmlns="http://www.w3.org/2000/svg" viewBox="0 0 1158.3 382.4">
  <defs>
    <style>
      .cls-1 {
        letter-spacing: 0em;
      }

      .cls-2 {
        font-family: Desyrel, Desyrel;
        font-size: 300px;
      }

      .cls-3 {
        letter-spacing: -.04em;
      }

      .cls-4 {
        letter-spacing: -.12em;
      }

      .cls-5 {
        letter-spacing: -.07em;
      }

      .cls-6 {
        letter-spacing: -.05em;
      }

      .cls-7 {
        letter-spacing: 0em;
      }

      .cls-8 {
        letter-spacing: -.05em;
      }

      .cls-9 {
        letter-spacing: -.04em;
      }
    </style>
  </defs>
  <path d="M923.3,93.15c-1.36-13.32-26.56-22.53-63.19-25.31-3.5-20.53-7.55-44.22-8.74-50.66-2.72-14.75-22.14-22.99-36.57-12.36-7.57,5.58-14.34,5.97-17.92,5.97s-7.57,.79-17.92-5.97c-15-9.81-33.85-2.39-36.56,12.36-1.45,7.87-7.17,41.43-10.93,63.58-36.04,10.16-59.44,24.47-58.06,37.95,2.08,20.32,59.7,31.09,128.7,24.03,69.02-7.06,123.27-29.25,121.18-49.58Zm-185.35,4.86l3.98-20.71s70.89,11.15,110.72-9.56l3.98,17.52s-43.01,27.08-118.68,12.74Z"/>
  <text class="cls-2" transform="translate(0 272.3)"><tspan class="cls-9" x="0" y="0">D</tspan><tspan class="cls-7" x="182.4" y="0">e</tspan><tspan class="cls-8" x="319.2" y="0">B</tspan><tspan class="cls-4" x="512.1" y="0">a</tspan><tspan class="cls-3" x="655.2" y="0">r</tspan><tspan class="cls-6" x="779.4" y="0">r</tspan><tspan class="cls-5" x="900.3" y="0">i</tspan><tspan class="cls-1" x="993.9" y="0">o</tspan></text>
</svg>